<mxfile host="app.diagrams.net" agent="Mozilla/5.0 (Windows NT 10.0; Win64; x64) AppleWebKit/537.36 (KHTML, like Gecko) Chrome/132.0.0.0 Safari/537.36" version="25.0.0">
  <diagram name="Página-1" id="Tk7YxRxCbJ7hPoc0xfap">
    <mxGraphModel dx="880" dy="434" grid="1" gridSize="10" guides="1" tooltips="1" connect="1" arrows="1" fold="1" page="1" pageScale="1" pageWidth="827" pageHeight="1169" math="0" shadow="0">
      <root>
        <mxCell id="0" />
        <mxCell id="1" parent="0" />
        <mxCell id="1BunmHmFQyCwNc0gOEUm-1" value="Usuário" style="shape=umlActor;verticalLabelPosition=bottom;verticalAlign=top;html=1;outlineConnect=0;" parent="1" vertex="1">
          <mxGeometry x="20" y="210" width="30" height="60" as="geometry" />
        </mxCell>
        <mxCell id="1BunmHmFQyCwNc0gOEUm-2" value="O sistema deve permitir o cadastro de produtos" style="rounded=0;whiteSpace=wrap;html=1;" parent="1" vertex="1">
          <mxGeometry x="220" y="40" width="180" height="60" as="geometry" />
        </mxCell>
        <mxCell id="1BunmHmFQyCwNc0gOEUm-3" value="F" style="text;html=1;align=center;verticalAlign=middle;resizable=0;points=[];autosize=1;strokeColor=none;fillColor=none;" parent="1" vertex="1">
          <mxGeometry x="195" y="28" width="30" height="30" as="geometry" />
        </mxCell>
        <mxCell id="1BunmHmFQyCwNc0gOEUm-4" value="" style="endArrow=none;html=1;rounded=0;entryX=0;entryY=0.5;entryDx=0;entryDy=0;" parent="1" source="1BunmHmFQyCwNc0gOEUm-1" target="1BunmHmFQyCwNc0gOEUm-5" edge="1">
          <mxGeometry width="50" height="50" relative="1" as="geometry">
            <mxPoint x="140" y="100" as="sourcePoint" />
            <mxPoint x="190" y="50" as="targetPoint" />
          </mxGeometry>
        </mxCell>
        <mxCell id="1BunmHmFQyCwNc0gOEUm-5" value="O sistema deve permitir ao usuário criar e editar sua conta" style="rounded=0;whiteSpace=wrap;html=1;" parent="1" vertex="1">
          <mxGeometry x="220" y="130" width="180" height="60" as="geometry" />
        </mxCell>
        <mxCell id="1BunmHmFQyCwNc0gOEUm-6" value="O sistema deve permitir a avaliação dos produtos." style="rounded=0;whiteSpace=wrap;html=1;" parent="1" vertex="1">
          <mxGeometry x="220" y="220" width="180" height="60" as="geometry" />
        </mxCell>
        <mxCell id="1BunmHmFQyCwNc0gOEUm-7" value="O sistema deve fornecer um mecanismo de busca" style="rounded=0;whiteSpace=wrap;html=1;" parent="1" vertex="1">
          <mxGeometry x="220" y="380" width="180" height="60" as="geometry" />
        </mxCell>
        <mxCell id="1BunmHmFQyCwNc0gOEUm-8" value="O sistema deve ser executado em dispositivos windows e na web" style="rounded=0;whiteSpace=wrap;html=1;" parent="1" vertex="1">
          <mxGeometry x="225" y="560" width="180" height="60" as="geometry" />
        </mxCell>
        <mxCell id="1BunmHmFQyCwNc0gOEUm-9" value="O sistema deve ter uma resposta de até 200 ms a um clique único do usuário em qualquer botão" style="rounded=0;whiteSpace=wrap;html=1;" parent="1" vertex="1">
          <mxGeometry x="225" y="650" width="180" height="70" as="geometry" />
        </mxCell>
        <mxCell id="1BunmHmFQyCwNc0gOEUm-10" value="Deve ser compatível com os navegadores Chrome, opera e brave" style="rounded=0;whiteSpace=wrap;html=1;" parent="1" vertex="1">
          <mxGeometry x="225" y="760" width="180" height="60" as="geometry" />
        </mxCell>
        <mxCell id="1BunmHmFQyCwNc0gOEUm-11" value="Deve ser capaz de suportar até 1000 usuários simultâneos." style="rounded=0;whiteSpace=wrap;html=1;align=center;" parent="1" vertex="1">
          <mxGeometry x="225" y="850" width="180" height="60" as="geometry" />
        </mxCell>
        <mxCell id="1BunmHmFQyCwNc0gOEUm-14" value="F" style="text;html=1;align=center;verticalAlign=middle;resizable=0;points=[];autosize=1;strokeColor=none;fillColor=none;" parent="1" vertex="1">
          <mxGeometry x="190" y="110" width="30" height="30" as="geometry" />
        </mxCell>
        <mxCell id="1BunmHmFQyCwNc0gOEUm-15" value="F" style="text;html=1;align=center;verticalAlign=middle;resizable=0;points=[];autosize=1;strokeColor=none;fillColor=none;" parent="1" vertex="1">
          <mxGeometry x="190" y="200" width="30" height="30" as="geometry" />
        </mxCell>
        <mxCell id="1BunmHmFQyCwNc0gOEUm-16" value="F" style="text;html=1;align=center;verticalAlign=middle;resizable=0;points=[];autosize=1;strokeColor=none;fillColor=none;" parent="1" vertex="1">
          <mxGeometry x="190" y="360" width="30" height="30" as="geometry" />
        </mxCell>
        <mxCell id="1BunmHmFQyCwNc0gOEUm-17" value="NF" style="text;html=1;align=center;verticalAlign=middle;resizable=0;points=[];autosize=1;strokeColor=none;fillColor=none;" parent="1" vertex="1">
          <mxGeometry x="190" y="540" width="40" height="30" as="geometry" />
        </mxCell>
        <mxCell id="1BunmHmFQyCwNc0gOEUm-18" value="NF" style="text;html=1;align=center;verticalAlign=middle;resizable=0;points=[];autosize=1;strokeColor=none;fillColor=none;" parent="1" vertex="1">
          <mxGeometry x="190" y="630" width="40" height="30" as="geometry" />
        </mxCell>
        <mxCell id="1BunmHmFQyCwNc0gOEUm-22" value="O sistema deve permitir que os usuários adicionem e removam produtos no carrinho" style="rounded=0;whiteSpace=wrap;html=1;" parent="1" vertex="1">
          <mxGeometry x="225" y="470" width="180" height="60" as="geometry" />
        </mxCell>
        <mxCell id="1BunmHmFQyCwNc0gOEUm-23" value="F" style="text;html=1;align=center;verticalAlign=middle;resizable=0;points=[];autosize=1;strokeColor=none;fillColor=none;" parent="1" vertex="1">
          <mxGeometry x="200" y="440" width="30" height="30" as="geometry" />
        </mxCell>
        <mxCell id="1BunmHmFQyCwNc0gOEUm-24" value="NF" style="text;html=1;align=center;verticalAlign=middle;resizable=0;points=[];autosize=1;strokeColor=none;fillColor=none;" parent="1" vertex="1">
          <mxGeometry x="190" y="730" width="40" height="30" as="geometry" />
        </mxCell>
        <mxCell id="1BunmHmFQyCwNc0gOEUm-25" value="NF" style="text;html=1;align=center;verticalAlign=middle;resizable=0;points=[];autosize=1;strokeColor=none;fillColor=none;" parent="1" vertex="1">
          <mxGeometry x="195" y="820" width="40" height="30" as="geometry" />
        </mxCell>
        <mxCell id="1BunmHmFQyCwNc0gOEUm-26" value="" style="endArrow=none;html=1;rounded=0;exitX=0;exitY=0.5;exitDx=0;exitDy=0;" parent="1" source="1BunmHmFQyCwNc0gOEUm-22" target="1BunmHmFQyCwNc0gOEUm-1" edge="1">
          <mxGeometry width="50" height="50" relative="1" as="geometry">
            <mxPoint x="60" y="190" as="sourcePoint" />
            <mxPoint x="110" y="140" as="targetPoint" />
          </mxGeometry>
        </mxCell>
        <mxCell id="1BunmHmFQyCwNc0gOEUm-27" value="Sistema" style="shape=umlActor;verticalLabelPosition=bottom;verticalAlign=top;html=1;outlineConnect=0;" parent="1" vertex="1">
          <mxGeometry x="640" y="620" width="30" height="60" as="geometry" />
        </mxCell>
        <mxCell id="1BunmHmFQyCwNc0gOEUm-30" value="" style="endArrow=none;html=1;rounded=0;exitX=1;exitY=0.5;exitDx=0;exitDy=0;" parent="1" source="1BunmHmFQyCwNc0gOEUm-6" target="1BunmHmFQyCwNc0gOEUm-27" edge="1">
          <mxGeometry width="50" height="50" relative="1" as="geometry">
            <mxPoint x="500" y="210" as="sourcePoint" />
            <mxPoint x="550" y="160" as="targetPoint" />
          </mxGeometry>
        </mxCell>
        <mxCell id="1BunmHmFQyCwNc0gOEUm-34" value="" style="endArrow=none;html=1;rounded=0;entryX=1;entryY=0.5;entryDx=0;entryDy=0;" parent="1" source="1BunmHmFQyCwNc0gOEUm-27" target="1BunmHmFQyCwNc0gOEUm-7" edge="1">
          <mxGeometry width="50" height="50" relative="1" as="geometry">
            <mxPoint x="460" y="520" as="sourcePoint" />
            <mxPoint x="410" y="360" as="targetPoint" />
          </mxGeometry>
        </mxCell>
        <mxCell id="1BunmHmFQyCwNc0gOEUm-35" value="" style="endArrow=none;html=1;rounded=0;exitX=1;exitY=0.5;exitDx=0;exitDy=0;" parent="1" source="1BunmHmFQyCwNc0gOEUm-8" target="1BunmHmFQyCwNc0gOEUm-27" edge="1">
          <mxGeometry width="50" height="50" relative="1" as="geometry">
            <mxPoint x="390" y="550" as="sourcePoint" />
            <mxPoint x="440" y="500" as="targetPoint" />
            <Array as="points" />
          </mxGeometry>
        </mxCell>
        <mxCell id="1BunmHmFQyCwNc0gOEUm-36" value="" style="endArrow=none;html=1;rounded=0;exitX=1;exitY=0.5;exitDx=0;exitDy=0;" parent="1" source="1BunmHmFQyCwNc0gOEUm-9" target="1BunmHmFQyCwNc0gOEUm-27" edge="1">
          <mxGeometry width="50" height="50" relative="1" as="geometry">
            <mxPoint x="510" y="690" as="sourcePoint" />
            <mxPoint x="560" y="640" as="targetPoint" />
          </mxGeometry>
        </mxCell>
        <mxCell id="1BunmHmFQyCwNc0gOEUm-37" value="" style="endArrow=none;html=1;rounded=0;exitX=1;exitY=0.5;exitDx=0;exitDy=0;" parent="1" source="1BunmHmFQyCwNc0gOEUm-10" target="1BunmHmFQyCwNc0gOEUm-27" edge="1">
          <mxGeometry width="50" height="50" relative="1" as="geometry">
            <mxPoint x="470" y="760" as="sourcePoint" />
            <mxPoint x="520" y="710" as="targetPoint" />
          </mxGeometry>
        </mxCell>
        <mxCell id="1BunmHmFQyCwNc0gOEUm-38" value="" style="endArrow=none;html=1;rounded=0;exitX=1;exitY=0.5;exitDx=0;exitDy=0;" parent="1" source="1BunmHmFQyCwNc0gOEUm-11" target="1BunmHmFQyCwNc0gOEUm-27" edge="1">
          <mxGeometry width="50" height="50" relative="1" as="geometry">
            <mxPoint x="430" y="860" as="sourcePoint" />
            <mxPoint x="480" y="810" as="targetPoint" />
          </mxGeometry>
        </mxCell>
        <mxCell id="1BunmHmFQyCwNc0gOEUm-39" value="" style="endArrow=none;html=1;rounded=0;exitX=1;exitY=0.5;exitDx=0;exitDy=0;" parent="1" source="1BunmHmFQyCwNc0gOEUm-2" target="1BunmHmFQyCwNc0gOEUm-41" edge="1">
          <mxGeometry width="50" height="50" relative="1" as="geometry">
            <mxPoint x="540" y="275" as="sourcePoint" />
            <mxPoint x="590" y="225" as="targetPoint" />
          </mxGeometry>
        </mxCell>
        <mxCell id="1BunmHmFQyCwNc0gOEUm-41" value="Administrador" style="shape=umlActor;verticalLabelPosition=bottom;verticalAlign=top;html=1;outlineConnect=0;" parent="1" vertex="1">
          <mxGeometry x="650" y="280" width="30" height="60" as="geometry" />
        </mxCell>
        <mxCell id="1BunmHmFQyCwNc0gOEUm-42" value="As páginas devem carregar em no máximo 2 segundos em uma conexão de 10 Mbps" style="rounded=0;whiteSpace=wrap;html=1;" parent="1" vertex="1">
          <mxGeometry x="225" y="950" width="185" height="60" as="geometry" />
        </mxCell>
        <mxCell id="1BunmHmFQyCwNc0gOEUm-43" value="" style="endArrow=none;html=1;rounded=0;exitX=1;exitY=0.25;exitDx=0;exitDy=0;" parent="1" source="1BunmHmFQyCwNc0gOEUm-42" target="1BunmHmFQyCwNc0gOEUm-27" edge="1">
          <mxGeometry width="50" height="50" relative="1" as="geometry">
            <mxPoint x="500" y="840" as="sourcePoint" />
            <mxPoint x="590" y="790" as="targetPoint" />
          </mxGeometry>
        </mxCell>
        <mxCell id="1BunmHmFQyCwNc0gOEUm-44" value="NF" style="text;html=1;align=center;verticalAlign=middle;resizable=0;points=[];autosize=1;strokeColor=none;fillColor=none;" parent="1" vertex="1">
          <mxGeometry x="190" y="920" width="40" height="30" as="geometry" />
        </mxCell>
        <mxCell id="bFvd9d0Dqz4oyHyyxgar-1" value="O sistema deve permitir que os usuários comprem produtos" style="rounded=0;whiteSpace=wrap;html=1;" vertex="1" parent="1">
          <mxGeometry x="220" y="300" width="180" height="60" as="geometry" />
        </mxCell>
        <mxCell id="bFvd9d0Dqz4oyHyyxgar-2" value="F" style="text;html=1;align=center;verticalAlign=middle;resizable=0;points=[];autosize=1;strokeColor=none;fillColor=none;" vertex="1" parent="1">
          <mxGeometry x="190" y="280" width="30" height="30" as="geometry" />
        </mxCell>
        <mxCell id="bFvd9d0Dqz4oyHyyxgar-3" value="" style="endArrow=none;html=1;rounded=0;entryX=0.5;entryY=0.5;entryDx=0;entryDy=0;entryPerimeter=0;exitX=0.006;exitY=0.383;exitDx=0;exitDy=0;exitPerimeter=0;" edge="1" parent="1" source="bFvd9d0Dqz4oyHyyxgar-1" target="1BunmHmFQyCwNc0gOEUm-1">
          <mxGeometry width="50" height="50" relative="1" as="geometry">
            <mxPoint x="390" y="350" as="sourcePoint" />
            <mxPoint x="440" y="300" as="targetPoint" />
          </mxGeometry>
        </mxCell>
      </root>
    </mxGraphModel>
  </diagram>
</mxfile>
